<?xml version="1.0" encoding="UTF-8" standalone="no"?>
<!DOCTYPE svg PUBLIC "-//W3C//DTD SVG 1.1//EN" "http://www.w3.org/Graphics/SVG/1.1/DTD/svg11.dtd">
<svg width="100%" height="100%" viewBox="0 0 1000 896" version="1.1" xmlns="http://www.w3.org/2000/svg" xmlns:xlink="http://www.w3.org/1999/xlink" xml:space="preserve" xmlns:serif="http://www.serif.com/" style="fill-rule:evenodd;clip-rule:evenodd;stroke-linejoin:round;stroke-miterlimit:2;">
    <g id="Artboard1" transform="matrix(1,0,0,1.96742,0,0)">
        <rect x="0" y="0" width="1000" height="455" style="fill:none;"/>
        <g transform="matrix(1.38359,0,0,0.703251,-182.109,193.278)">
            <path d="M137,96L370,96C389.6,96 401,112.9 401,133L401,362L336,362L336,163L298,163L298,362L239,362L239,163L202,163L202,362L137,362L137,96Z" style="fill-rule:nonzero;"/>
        </g>
        <g transform="matrix(1.38359,0,0,0.703251,-182.109,193.278)">
            <rect x="433" y="96" width="65" height="266"/>
        </g>
        <g transform="matrix(1.38359,0,0,0.703251,-182.109,193.278)">
            <path d="M529,96L722,96C741.6,96 753,112.9 753,133L753,329C753,353.9 742.6,362 720,362L529,362L529,193L595,193L595,297L688,297L688,156L529,156L529,96Z" style="fill-rule:nonzero;"/>
        </g>
        <g transform="matrix(1.38359,0,0,0.703251,-182.109,193.278)">
            <rect x="783" y="96" width="66" height="266"/>
        </g>
        <g transform="matrix(0.25079,0,0,0.127472,500,102.524)">
            <g transform="matrix(1,0,0,1,-896,-896)">
                <g id="path3017" transform="matrix(1,0,0,-1,113.898,1549.02)">
                    <path d="M1120,608C1120,600 1116.67,592 1110,584L791,265C785,259 777.333,256 768,256C758.667,256 751,259 745,265L425,585C419,591 416,598.667 416,608C416,616.667 419.167,624.167 425.5,630.5C431.833,636.833 439.333,640 448,640L640,640L640,992C640,1000.67 643.167,1008.17 649.5,1014.5C655.833,1020.83 663.333,1024 672,1024L864,1024C872.667,1024 880.167,1020.83 886.5,1014.5C892.833,1008.17 896,1000.67 896,992L896,640L1088,640C1097.33,640 1105,637 1111,631C1117,625 1120,617.333 1120,608ZM1280,640C1280,709.333 1266.5,775.5 1239.5,838.5C1212.5,901.5 1176,956 1130,1002C1084,1048 1029.5,1084.5 966.5,1111.5C903.5,1138.5 837.333,1152 768,1152C698.667,1152 632.5,1138.5 569.5,1111.5C506.5,1084.5 452,1048 406,1002C360,956 323.5,901.5 296.5,838.5C269.5,775.5 256,709.333 256,640C256,570.667 269.5,504.5 296.5,441.5C323.5,378.5 360,324 406,278C452,232 506.5,195.5 569.5,168.5C632.5,141.5 698.667,128 768,128C837.333,128 903.5,141.5 966.5,168.5C1029.5,195.5 1084,232 1130,278C1176,324 1212.5,378.5 1239.5,441.5C1266.5,504.5 1280,570.667 1280,640ZM1536,640C1536,500.667 1501.67,372.167 1433,254.5C1364.33,136.833 1271.17,43.667 1153.5,-25C1035.83,-93.667 907.333,-128 768,-128C628.667,-128 500.167,-93.667 382.5,-25C264.833,43.667 171.667,136.833 103,254.5C34.333,372.167 0,500.667 0,640C0,779.333 34.333,907.833 103,1025.5C171.667,1143.17 264.833,1236.33 382.5,1305C500.167,1373.67 628.667,1408 768,1408C907.333,1408 1035.83,1373.67 1153.5,1305C1271.17,1236.33 1364.33,1143.17 1433,1025.5C1501.67,907.833 1536,779.333 1536,640Z" style="fill-rule:nonzero;"/>
                </g>
            </g>
        </g>
    </g>
</svg>
